<svg xmlns="http://www.w3.org/2000/svg" id="Layer_1" data-name="Layer 1" viewBox="0 0 1192.42 373.83">
  <g>
    <path d="M306.33,292.48c-15-12.34-29.56-25.42-45.26-36.95-1.84-3.15,2.04-9.29,6.13-6.86l68.23,56.51c3.09,2.78-2.75,7.71-5.6,6.97-1.48-.39-20.18-16.95-23.49-19.67Z" fill="#fe6247"/>
    <path d="M194.02,45.04l-1.22,94.51c-6.98,2.28-7.41-.22-7.84-6.44-1.52-22.09-1.65-57.7.07-79.69.22-2.78,1.4-5.47,1.33-8.3l7.65-.08Z" fill="#fe6247"/>
    <path d="M192.73,235.19l-1.29,95.09-7.15-1.21c-.56-31.02-1.8-62.94.85-93.73l7.6-.15Z" fill="#fe6247"/>
    <path d="M148.95,158.21l-3.25,7.5-77.54-44.27c-4.18-2.43-2.65-6.94.71-9.5l80.08,46.27Z" fill="#fe6247"/>
    <path d="M314.7,254.57c1.21,1.69-1.99,9.12-5.4,7.41l-80.46-47.77,4.34-5.93,81.52,46.29Z" fill="#fe6247"/>
    <path d="M242.82,106.71c-1.23.94-9.21-3.47-7.2-6.45l45.93-76.95c7.53,1.36,8.92,1.95,5.64,8.93-8.78,18.69-30.71,52.56-42.88,70.21-.87,1.26-1.35,2.74-1.5,4.26Z" fill="#fe6247"/>
    <path d="M283.94,295.56l-6.79,2.47c-21-22.61-40.85-46.81-59.68-71.2.05-.67,2.11-2.8,2.83-3.27,2.04-1.32,3.26-2,5.28-.02l58.37,72.01Z" fill="#fe6247"/>
    <path d="M209.31,231.43l30.78,86.9c.18,3.14-4.61,3.36-6.78,4.27-11.88-29.39-22.56-59.65-31.58-89.96l7.58-1.21Z" fill="#fe6247"/>
    <path d="M331.49,209.51l-2.06,7.8-90.85-15.76c-3.4-1.27-1.99-5.69-2.17-8.75l95.08,16.71Z" fill="#fe6247"/>
    <path d="M238.57,270.09c2.23-.19,4.23,2.92,5.33,4.51,15.04,21.67,25.79,49.75,41.62,71.47,3.41,5.19-4.31,9.97-7.27,4.67-11.9-23.97-31.37-47.99-42.53-71.81-1.8-3.84-3.26-8.33,2.85-8.84Z" fill="#fe6247"/>
    <polygon points="1.93 190.23 0 181.23 92.52 182.51 92.51 190.23 1.93 190.23" fill="#fe6247"/>
    <path d="M48.17,62.07l67.5,56.82c5.55,3.28-.99,9.72-5.11,7.76l-66.77-59.3,4.39-5.28Z" fill="#fe6247"/>
    <polygon points="161.87 149.07 154.34 151.52 96.47 78.59 102.8 75.21 161.87 149.07" fill="#fe6247"/>
    <path d="M227.42,1.36l-16.72,92.51-7.63-1.35L218.64,3.5c1.1-3.3,5.93-1.98,8.78-2.14Z" fill="#fe6247"/>
    <path d="M142.63,174.82l-1.33,7.66c-30.89-4.51-61.56-11.55-92.41-16.73l-.07-7.66,93.8,16.72Z" fill="#fe6247"/>
    <path d="M333.6,64.42c2.13-.4,5.91,4.88,5.03,6.34l-70.16,57.15c-3.6,2.15-5.9-1.77-6.16-4.95l71.28-58.54Z" fill="#fe6247"/>
    <path d="M279.63,77.26l5.01,3.74-1.4,3.77-57.66,67c-3.68,3.23-8.58-1.34-6.55-5.2l60.61-69.31Z" fill="#fe6247"/>
    <path d="M114.18,246.95c.93.54,4.09,6.66.9,7.58l-68.42,56.3-5.22-5.63,69.07-57.8c1.08-.64,2.5-1.14,3.67-.45Z" fill="#fe6247"/>
    <path d="M145.03,52.93c3.91,2.42,25.64,76.8,30.97,86.64-.06,3.78-4.95,3.51-7.56,2.98l-30.75-85.53c-.3-3.11,5.07-5.48,7.34-4.09Z" fill="#fe6247"/>
    <path d="M174.61,232.76l-32.11,88.42c-.82.58-2.74-.08-3.79-.46-1.73-.63-3.92-1.72-3.64-3.7l34.09-85.56,5.45,1.3Z" fill="#fe6247"/>
    <path d="M95.34,295.34c-.97-1.61-.21-4.18.97-5.62,17.98-18.44,33.23-41.16,50.79-59.69,2.75-2.9,7.7-9.96,11.67-6.49l1.65,3.08-60.82,71.22c-.84-.93-3.98-2.02-4.26-2.5Z" fill="#fe6247"/>
    <path d="M237.01,53.18l5.31,2.1.03,2.67-34.63,85.9c-3.13-1.18-5.79-2.61-4.2-6.31l30.61-81.26,2.87-3.09Z" fill="#fe6247"/>
    <path d="M174.59,282.89c2.43,3.8-14.78,78.16-15.52,88.89l-1.61,1.85-5.77-1.02,15.39-91.12,7.51,1.4Z" fill="#fe6247"/>
    <polygon points="215.97 373.83 200.43 282.74 207.4 281.59 223.6 370.76 221.44 373.76 215.97 373.83" fill="#fe6247"/>
    <path d="M169.76,92.41L155.66,2.2l3.03-2.2,4.23,2.27,14.33,87.23c-.05,3.75-4.89,3.49-7.48,2.91Z" fill="#fe6247"/>
    <path d="M231.49,165.62l-2.24-4.96,83-46.96c1.38,1.63,4.73,4.43,2.65,6.53-22.49,12.22-44.24,26.63-66.9,38.54-2.74,1.44-14.54,8.05-16.52,6.85Z" fill="#fe6247"/>
    <path d="M98.83,352.03c-1.54,1.1-9.13-1.79-7.09-5.07l46.37-78.2,5.64,4.31-44.92,78.96Z" fill="#fe6247"/>
    <path d="M10.38,248.16l84.36-30.74c4.44-1.04,4.81,3.69,4.05,6.69l-84.25,31.48c-2.75.45-5.16-6.02-4.16-7.43Z" fill="#fe6247"/>
    <path d="M278.85,226.14c-.24-3.38,1.34-8.27,5.4-7.45l82.44,30.82c3.19,1.37.75,4.79-.47,7.01l-87.37-30.38Z" fill="#fe6247"/>
    <path d="M364.58,121.05c4.02-1.2,7.35,6.49,2.53,7.78l-83.07,30.02c-3.42.31-5.05-4.84-3.38-7.23,3.08-4.42,73.82-24.91,83.91-30.56Z" fill="#fe6247"/>
    <polygon points="11.64 125.92 12.98 118.4 17.02 118.56 100.03 150.99 97.72 156.27 93.47 156.59 11.64 125.92" fill="#fe6247"/>
    <path d="M146.33,208.32l2.69,5.58-79.58,46.5c-3.39,1.82-6.1-5.16-5.02-7.02l81.91-45.06Z" fill="#fe6247"/>
    <path d="M331.49,160.67v7.72s-92.15,15.2-92.15,15.2c-3.93.18-4.27-7.42-.75-8.52l92.9-14.39Z" fill="#fe6247"/>
    <path d="M136.3,105.34L94.32,29.68c-.6-2.47,6.67-7.58,8.3-3.11l40.77,73.69c2.03,3.28-5.57,6.18-7.09,5.07Z" fill="#fe6247"/>
    <path d="M379.03,185.08l-.19,6.24c-1.54,2.55-19.86,1-23.59.07-22.67,2.49-45.78-1.16-68.74.12v-7.72l92.52,1.29Z" fill="#fe6247"/>
    <path d="M141.33,191.52l-.81,7.77-91.67,15.35-.79-6.46c2.66-3.93,82.4-13.47,93.27-16.66Z" fill="#fe6247"/>
  </g>
  <g>
    <path d="M440.47,90.37l1.2-2.91c9.23,0,18.46.11,27.69.34h5.64c1.71,0,3.59-.06,5.64-.17,7.4-.34,20.79-.51,40.16-.51,3.87,0,7.63.03,11.28.08,3.64.06,7.18.14,10.6.26.68.34,1.2.85,1.54,1.54l-.34,2.73c-.68,1.14-2.39,1.71-5.13,1.71h-1.37c-3.19-.11-8.43.14-15.72.77-7.29.63-12.08,1.79-14.36,3.5-1.48,1.25-2.22,2.91-2.22,4.96,0,4.44,1.88,11.11,5.64,20l26.01,60.33,9.07,20c8.78,21.19,17.45,42.84,26.01,64.94.91,2.39,1.76,4.56,2.57,6.49l11.43-28.03c5.92-14.13,11.89-29.17,17.92-45.12l11.78-32.13c.23-.68.85-2.96,1.88-6.84,11.03-30.19,16.55-49.28,16.55-57.25,0-1.71-.77-3.45-2.31-5.21-1.54-1.76-4.02-3.22-7.43-4.36-1.37-.45-5.81-1.14-13.33-2.05l-12.65-1.54c-1.03-1.14-1.54-2.11-1.54-2.91l.51-1.37,55.37-.51h18.29c6.15,0,10.37.4,12.65,1.2l.17,1.37c0,.91-.34,2.11-1.03,3.59-2.73.91-5.24,1.48-7.52,1.71-9.57,1.14-15.5,2.48-17.78,4.02s-4.67,4.81-7.18,9.83l-44.84,111.08c-13.98,33.38-23.93,59.25-29.84,77.59l-4.94,14.87c-1.48.91-2.73,1.37-3.75,1.37-1.31,0-2.73-.17-4.27-.51-13.56-35.06-24.62-62.15-33.16-81.28l-52.31-118.5c-3.76-7.06-6.58-11.31-8.46-12.73-1.88-1.42-8.46-3.44-19.73-6.07-3.99-.91-6.21-1.48-6.66-1.71-.8-.57-1.37-1.42-1.71-2.56Z" fill="#fe6247"/>
    <path d="M797.3,283.83c.68,1.48,1.03,2.56,1.03,3.25,0,1.71-1.37,4.73-4.1,9.06-3.53,5.7-7.46,9.86-11.79,12.48-2.73,1.71-6.49,2.56-11.28,2.56-8.2,0-14.36-2.51-18.46-7.52-2.51-2.96-4.27-8.26-5.3-15.89l-19.14,13.33c-6.72,3.87-11.85,6.32-15.38,7.35-5.7,1.48-12.53,2.22-20.51,2.22-5.81,0-10.4-1.74-13.76-5.21-3.36-3.47-5.04-7.95-5.04-13.42,0-7.86,4.82-17.26,14.47-28.2s22.75-19.88,39.31-26.83c11.65-4.9,18.78-8.03,21.41-9.4.23-3.76.34-7.86.34-12.3,0-14.47-2.03-24.27-6.09-29.39-4.06-5.13-9.86-7.69-17.4-7.69s-15.26,3.08-22.12,9.23c-4.23,3.87-7.43,11.17-9.6,21.88-.68,2.96-2,6.15-3.93,9.57-4.9,3.19-8.83,4.79-11.79,4.79-2.51,0-4.79-.74-6.84-2.22-1.14-.8-1.71-1.71-1.71-2.73,0-2.96,3.16-9.66,9.48-20.08,6.32-10.42,14.3-18.23,23.93-23.41,9.63-5.18,18.03-7.78,25.21-7.78,9.8,0,17.09.88,21.88,2.65,4.79,1.77,9,4.87,12.65,9.31,3.64,4.44,5.87,9.29,6.67,14.53.45,2.51.68,11.45.68,26.83l-.51,27.17.17,19.82c0,2.62-.06,4.84-.17,6.67-.12,3.31-.17,5.75-.17,7.35,0,3.76,1.08,6.78,3.25,9.06,2.16,2.28,4.73,3.42,7.69,3.42,4.33,0,8.03-2.16,11.11-6.49l2.05-2.73c.57-.34,1.82-.74,3.76-1.2ZM747.23,278.87c.8-14.47,1.2-24.67,1.2-30.59,0-3.08-.17-7.23-.51-12.48-7.66,2.73-15.78,6.89-24.35,12.48-8.57,5.58-15.38,12.02-20.41,19.31-3.66,5.24-5.49,10.2-5.49,14.87s1.51,8.15,4.54,11.11c3.03,2.96,6.83,4.44,11.4,4.44,3.54,0,7.83-1.25,12.86-3.76,6.63-3.3,13.54-8.43,20.75-15.38Z" fill="#fe6247"/>
    <path d="M809.44,95.33v-3.76c3.19-1.03,6.72-2.11,10.6-3.25,5.72-1.82,14.2-4.61,25.42-8.37h8.07v9.41c0,93.61-.29,149.42-.85,167.44-.34,10.61-.51,16.25-.51,16.93,0,12.77.51,19.9,1.54,21.38,1.37,2.05,5.55,3.48,12.56,4.28,7.01.8,11.13,1.6,12.39,2.39.91.46,1.37,1.25,1.37,2.39,0,1.25-.26,2.14-.77,2.65-.51.51-1.45.77-2.82.77-.8,0-6.78-.2-17.94-.58l-22.39-.78-28.71,1.37c-1.82.11-3.19-.24-4.1-1.05-.68-.58-1.03-1.4-1.03-2.45,0-1.17.37-2.01,1.11-2.54.74-.53,4.84-1.42,12.3-2.67,7.46-1.25,11.73-2.31,12.82-3.16,1.08-.85,1.79-2.76,2.14-5.72.45-4.1.68-15.66.68-34.69l-.17-39.31.51-40.67-.17-40.67.51-20c0-3.99-.63-6.86-1.88-8.63-1.25-1.76-3.93-3.5-8.03-5.21-6.15-2.5-10.37-4.33-12.65-5.47Z" fill="#fe6247"/>
    <path d="M1016.05,216.83l-68.53.5h-12.99c-5.24-.01-10.6.22-16.06.7-1.03,3.42-1.54,5.75-1.54,7.01l.17,1.71v1.71l-.17,8.37c0,6.95,2.19,15.47,6.58,25.55,4.38,10.08,10.65,17.77,18.8,23.07,8.14,5.3,18.31,8.12,30.5,8.46,6.49-.34,11.68-1.14,15.55-2.39,3.87-1.25,9.34-4.16,16.41-8.72l12.3-10.08,1.03,6.84c0,.8-.06,1.65-.17,2.56-5.13,6.49-11.62,12.19-19.48,17.09-7.86,4.9-15.84,8.49-23.93,10.77-3.88,1.03-10.25,1.54-19.14,1.54-8.09,0-16.06-1.65-23.93-4.96-11.62-5.01-20.76-13.07-27.43-24.18-6.67-11.11-10-24.58-10-40.42,0-5.01.94-11.45,2.82-19.31,1.88-7.86,5.27-16.24,10.17-25.12,3.3-6.04,7.35-10.99,12.13-14.87,6.84-5.47,12.82-9.29,17.94-11.45,7.4-3.08,16.01-4.61,25.81-4.61,10.6,0,19.25,1.94,25.98,5.81,9.11,5.13,15.92,11.74,20.42,19.82,4.5,8.09,6.75,15.5,6.75,22.22v2.39ZM920.69,210.68h8.03c5.81,0,23.13-.91,51.95-2.73,4.56-.23,7.35-.68,8.37-1.37,2.05-2.16,3.08-4.1,3.08-5.81,0-3.53-1.14-7.55-3.42-12.05-2.28-4.5-5.78-7.97-10.51-10.42-4.73-2.45-10.23-3.67-16.49-3.67-13.22,0-23.81,4.96-31.79,14.87-6.15,7.52-9.23,14.58-9.23,21.19Z" fill="#fe6247"/>
    <path d="M1038.95,238.37c0-7.75,1.62-16.04,4.87-24.87,3.25-8.83,8.17-16.75,14.78-23.75,6.61-7.01,13.61-12.22,21.02-15.64,10.37-4.79,23.01-7.18,37.94-7.18,21.3,0,39.11,7.29,53.41,21.88,14.3,14.58,21.45,32.13,21.45,52.64,0,18.23-7.49,34.49-22.47,48.79-14.98,14.3-33.92,21.45-56.82,21.45-14.13,0-27.46-3.7-39.99-11.11-9.34-5.58-17.38-13.84-24.1-24.78-6.72-10.94-10.08-23.41-10.08-37.43ZM1114.57,305.02c8.67,0,17.03-2.33,25.08-7.01,8.05-4.67,14.46-12.16,19.26-22.47,4.79-10.31,7.19-22.24,7.19-35.8,0-8.89-1.86-19.2-5.56-30.93-3.71-11.73-9.42-20.54-17.12-26.4-7.7-5.87-16.75-8.8-27.13-8.8-7.53,0-15.21,1.77-23.03,5.3-7.82,3.53-14.44,10.31-19.86,20.34-5.42,10.03-8.13,24.27-8.13,42.72,0,20.74,4.71,36.43,14.12,47.08,9.42,10.65,21.14,15.98,35.18,15.98Z" fill="#fe6247"/>
  </g>
</svg>